<?xml version="1.0" encoding="UTF-8"?>
<!DOCTYPE svg PUBLIC "-//W3C//DTD SVG 1.1//EN" "http://www.w3.org/Graphics/SVG/1.1/DTD/svg11.dtd">
<!-- Creator: CorelDRAW 2021 (64-Bit) -->
<svg xmlns="http://www.w3.org/2000/svg" xml:space="preserve" width="50px" height="261px" version="1.1" style="shape-rendering:geometricPrecision; text-rendering:geometricPrecision; image-rendering:optimizeQuality; fill-rule:evenodd; clip-rule:evenodd"
viewBox="0 0 2.319 12.111"
 xmlns:xlink="http://www.w3.org/1999/xlink"
 xmlns:xodm="http://www.corel.com/coreldraw/odm/2003">
 <defs>
  <style type="text/css">
   <![CDATA[
    .fil2 {fill:#B3B3B3}
    .fil3 {fill:yellow}
    .fil1 {fill:white}
    .fil0 {fill:url(#id0)}
   ]]>
  </style>
  <linearGradient id="id0" gradientUnits="userSpaceOnUse" x1="1.159" y1="12.111" x2="1.159" y2="0">
   <stop offset="0" style="stop-opacity:1; stop-color:#69B4FF"/>
   <stop offset="0.2" style="stop-opacity:1; stop-color:#69B4FF"/>
   <stop offset="0.8" style="stop-opacity:1; stop-color:#4D4D4D"/>
   <stop offset="1" style="stop-opacity:1; stop-color:#4D4D4D"/>
  </linearGradient>
 </defs>
 <g id="Layer_x0020_1">
  <metadata id="CorelCorpID_0Corel-Layer"/>
  <polygon class="fil0" points="0,12.111 0,0 2.319,0 2.319,12.111 "/>
  <path class="fil1" d="M0 7.842l0 -0.532c0.012,-0.002 0.023,-0.003 0.035,-0.003 0.106,0 0.196,0.071 0.224,0.168 0.093,0.015 0.165,0.097 0.165,0.195 0,0.109 -0.089,0.198 -0.198,0.198 -0.073,0 -0.136,-0.039 -0.171,-0.097l-0.003 0c-0.012,0.027 -0.03,0.051 -0.052,0.071zm2.319 -1.123l0 0.238c-0.008,0.002 -0.015,0.003 -0.023,0.003 -0.054,0 -0.098,-0.044 -0.098,-0.098 0,-0.045 0.032,-0.084 0.074,-0.094 0.011,-0.02 0.027,-0.037 0.047,-0.049zm0 1.783l0 0.803c-0.009,0 -0.017,0.001 -0.026,0.001 -0.188,0 -0.341,-0.153 -0.341,-0.342 0,-0.159 0.11,-0.293 0.258,-0.33 0.027,-0.051 0.065,-0.095 0.109,-0.132z"/>
  <g id="_2159892966160">
   <g>
    <path class="fil2" d="M1.034 1.53c0.059,0 0.112,0.021 0.154,0.056 -0.014,0.011 -0.027,0.025 -0.037,0.042 -0.071,0.011 -0.125,0.072 -0.125,0.145 0,0.08 0.066,0.146 0.146,0.146 0.024,0 0.046,-0.006 0.067,-0.016 -0.043,0.068 -0.119,0.112 -0.205,0.112 -0.04,0 -0.079,-0.01 -0.112,-0.027 -0.036,0.015 -0.076,0.024 -0.118,0.024 -0.037,0 -0.073,-0.007 -0.106,-0.019 -0.03,0.014 -0.063,0.022 -0.098,0.022 -0.124,0 -0.224,-0.1 -0.224,-0.224 0,-0.104 0.072,-0.192 0.169,-0.217 0.05,-0.091 0.147,-0.153 0.259,-0.153 0.093,0 0.175,0.043 0.229,0.109l0.001 0z"/>
    <path class="fil2" d="M1.4 1.666c0.052,0.008 0.091,0.053 0.091,0.107 0,0.06 -0.049,0.108 -0.109,0.108 -0.04,0 -0.074,-0.021 -0.093,-0.053l-0.002 0c-0.02,0.043 -0.064,0.072 -0.115,0.072 -0.07,0 -0.127,-0.057 -0.127,-0.127 0,-0.067 0.052,-0.122 0.118,-0.127 0.021,-0.043 0.064,-0.072 0.115,-0.072 0.058,0 0.107,0.039 0.122,0.092z"/>
   </g>
   <path class="fil3" d="M1.885 1.337c-0.065,0.174 -0.191,0.319 -0.353,0.406 -0.01,-0.053 -0.047,-0.096 -0.098,-0.115 -0.028,-0.059 -0.089,-0.099 -0.156,-0.099 -0.025,0 -0.049,0.005 -0.07,0.015 -0.045,-0.034 -0.098,-0.054 -0.153,-0.058 -0.065,-0.07 -0.155,-0.11 -0.251,-0.11 -0.103,0 -0.199,0.047 -0.263,0.125 -0.083,-0.122 -0.132,-0.269 -0.132,-0.428 0,-0.303 0.178,-0.565 0.435,-0.687 -0.03,0.082 -0.047,0.171 -0.047,0.263 0,0.421 0.341,0.761 0.761,0.761 0.117,0 0.228,-0.026 0.327,-0.073zm-0.618 -0.815l0.019 0.059 0.062 0 -0.05 0.036 0.019 0.06 -0.05 -0.037 -0.05 0.037 0.019 -0.06 -0.051 -0.036 0.063 0 0.019 -0.059zm0.399 0.268l0.028 0.089 0.094 0 -0.076 0.055 0.029 0.089 -0.075 -0.055 -0.076 0.055 0.029 -0.089 -0.076 -0.055 0.094 0 0.029 -0.089zm0.1 -0.487l0.041 0.129 0.136 0 -0.11 0.08 0.042 0.128 -0.109 -0.079 -0.11 0.079 0.042 -0.128 -0.109 -0.08 0.135 0 0.042 -0.129z"/>
  </g>
  <g id="_2159892967408">
   <path class="fil1" d="M1.208 11.099c0.089,0 0.171,0.032 0.235,0.084 -0.023,0.018 -0.042,0.04 -0.057,0.065 -0.108,0.016 -0.19,0.109 -0.19,0.22 0,0.123 0.1,0.223 0.223,0.223 0.035,0 0.07,-0.009 0.1,-0.024 -0.065,0.103 -0.18,0.171 -0.311,0.171 -0.062,0 -0.12,-0.015 -0.171,-0.042 -0.055,0.024 -0.116,0.037 -0.18,0.037 -0.057,0 -0.111,-0.011 -0.161,-0.03 -0.045,0.022 -0.096,0.035 -0.15,0.035 -0.188,0 -0.341,-0.153 -0.341,-0.341 0,-0.16 0.11,-0.294 0.258,-0.331 0.076,-0.139 0.224,-0.234 0.394,-0.234 0.141,0 0.267,0.065 0.35,0.167l0.001 0z"/>
   <path class="fil1" d="M1.765 11.305c0.078,0.013 0.138,0.081 0.138,0.163 0,0.092 -0.074,0.166 -0.165,0.166 -0.061,0 -0.114,-0.033 -0.143,-0.081l-0.002 0c-0.031,0.065 -0.098,0.109 -0.174,0.109 -0.108,0 -0.194,-0.087 -0.194,-0.194 0,-0.102 0.079,-0.186 0.179,-0.193 0.032,-0.065 0.098,-0.11 0.175,-0.11 0.088,0 0.163,0.059 0.186,0.14z"/>
  </g>
  <path class="fil3" d="M1.373 10.304c0.277,0 0.503,0.225 0.503,0.503 0,0.145 -0.061,0.275 -0.159,0.367 -0.039,-0.029 -0.087,-0.046 -0.138,-0.046 -0.04,0 -0.077,0.01 -0.111,0.028l-0.002 -0.001c-0.068,-0.057 -0.153,-0.089 -0.242,-0.093 -0.088,-0.101 -0.213,-0.161 -0.347,-0.166 -0.005,-0.029 -0.008,-0.059 -0.008,-0.089 0,-0.278 0.226,-0.503 0.504,-0.503zm-0.192 -0.213l0.056 0.106 0.041 0.079c-0.015,0.003 -0.03,0.006 -0.045,0.01 -0.015,0.004 -0.03,0.009 -0.045,0.014l-0.003 -0.089 -0.004 -0.12zm-0.179 0.075l0.082 0.087 0.06 0.065c-0.014,0.007 -0.028,0.014 -0.041,0.022 -0.014,0.008 -0.027,0.016 -0.04,0.025l-0.026 -0.085 -0.035 -0.114zm-0.153 0.117l0.101 0.064 0.075 0.047c-0.011,0.01 -0.023,0.021 -0.034,0.032 -0.011,0.011 -0.021,0.022 -0.031,0.034l-0.048 -0.075 -0.063 -0.102zm-0.118 0.154l0.114 0.035 0.085 0.026c-0.008,0.013 -0.017,0.026 -0.025,0.039 -0.007,0.014 -0.015,0.028 -0.021,0.042l-0.065 -0.061 -0.088 -0.081zm-0.074 0.178l0.12 0.005 0.088 0.003c-0.005,0.015 -0.009,0.029 -0.014,0.045 -0.004,0.015 -0.007,0.03 -0.01,0.045l-0.078 -0.042 -0.106 -0.056zm-0.025 0.192l0.116 -0.027 0.087 -0.019c-0.001,0.015 -0.002,0.03 -0.002,0.046 0,0.016 0.001,0.031 0.002,0.047l-0.087 -0.02 -0.116 -0.027zm1.264 0.524l-0.027 -0.017c-0.015,-0.013 -0.031,-0.023 -0.049,-0.031l-0.025 -0.016 -0.005 -0.003c-0.011,-0.025 -0.027,-0.047 -0.046,-0.066 0.004,-0.003 0.007,-0.006 0.01,-0.009 0.011,-0.012 0.021,-0.023 0.031,-0.035l0.048 0.076 0.063 0.101zm0.118 -0.153l-0.114 -0.036 -0.085 -0.026c0.008,-0.012 0.017,-0.026 0.025,-0.039 0.007,-0.014 0.015,-0.028 0.021,-0.041l0.065 0.06 0.088 0.082zm0.074 -0.179l-0.12 -0.004 -0.088 -0.004c0.005,-0.014 0.009,-0.029 0.014,-0.044 0.004,-0.015 0.007,-0.031 0.01,-0.046l0.078 0.042 0.106 0.056zm0.025 -0.192l-0.116 0.027 -0.087 0.02c0.001,-0.016 0.002,-0.031 0.002,-0.047 0,-0.016 -0.001,-0.031 -0.002,-0.046l0.087 0.019 0.116 0.027zm-0.025 -0.192l-0.106 0.056 -0.078 0.042c-0.003,-0.015 -0.006,-0.03 -0.01,-0.045 -0.005,-0.016 -0.009,-0.03 -0.014,-0.045l0.088 -0.003 0.12 -0.005zm-0.074 -0.178l-0.088 0.081 -0.065 0.061c-0.006,-0.014 -0.014,-0.028 -0.021,-0.042 -0.008,-0.013 -0.017,-0.026 -0.025,-0.039l0.085 -0.026 0.114 -0.035zm-0.118 -0.154l-0.063 0.102 -0.048 0.075c-0.01,-0.012 -0.02,-0.023 -0.031,-0.034 -0.011,-0.011 -0.023,-0.022 -0.034,-0.032l0.075 -0.047 0.101 -0.064zm-0.153 -0.117l-0.035 0.114 -0.026 0.085c-0.013,-0.009 -0.026,-0.017 -0.04,-0.025 -0.013,-0.008 -0.027,-0.015 -0.041,-0.021l0.06 -0.066 0.082 -0.087zm-0.179 -0.075l-0.004 0.12 -0.003 0.089c-0.015,-0.005 -0.03,-0.01 -0.045,-0.014 -0.015,-0.004 -0.03,-0.007 -0.045,-0.01l0.041 -0.079 0.056 -0.106zm-0.191 -0.025l0.026 0.117 0.02 0.087c-0.015,-0.002 -0.031,-0.002 -0.046,-0.002 -0.016,0 -0.032,0 -0.047,0.002l0.02 -0.087 0.027 -0.117z"/>
  <polygon class="fil3" points="0.573,2.871 0.602,2.961 0.695,2.96 0.619,3.015 0.648,3.104 0.573,3.049 0.497,3.104 0.526,3.015 0.451,2.96 0.544,2.961 "/>
  <polygon class="fil3" points="1.881,3.832 1.91,3.921 2.003,3.921 1.927,3.975 1.956,4.064 1.881,4.009 1.805,4.064 1.834,3.975 1.759,3.921 1.852,3.921 "/>
  <polygon class="fil3" points="0.45,4.5 0.466,4.548 0.516,4.548 0.475,4.578 0.491,4.626 0.45,4.596 0.409,4.626 0.425,4.578 0.384,4.548 0.435,4.548 "/>
  <polygon class="fil3" points="0.938,3.637 0.957,3.696 1.018,3.695 0.968,3.732 0.987,3.79 0.938,3.754 0.888,3.79 0.907,3.732 0.857,3.695 0.919,3.696 "/>
  <polygon class="fil3" points="1.215,2.632 1.26,2.772 1.407,2.771 1.288,2.857 1.333,2.997 1.215,2.91 1.096,2.997 1.141,2.857 1.022,2.771 1.169,2.772 "/>
  <polygon class="fil3" points="1.65,4.774 1.664,4.815 1.706,4.815 1.672,4.84 1.685,4.881 1.65,4.856 1.616,4.881 1.629,4.84 1.594,4.815 1.637,4.815 "/>
  <polygon class="fil3" points="0.263,5.489 0.28,5.542 0.336,5.542 0.291,5.574 0.308,5.626 0.263,5.594 0.219,5.626 0.236,5.574 0.191,5.542 0.247,5.542 "/>
  <polygon class="fil3" points="1.975,6.112 1.988,6.152 2.031,6.152 1.996,6.177 2.01,6.218 1.975,6.193 1.941,6.218 1.954,6.177 1.919,6.152 1.962,6.152 "/>
 </g>
</svg>
