<?xml version="1.0" encoding="UTF-8"?>
<svg xmlns="http://www.w3.org/2000/svg" viewBox="0 0 50 261.13">
 <g id="Layer_x0020_1">
  <polygon style="fill:none" points="0,261.13 0,0 50,0 50,261.13 "/>
  <path style="fill:#fff" d="M0 169.08l0 -11.47c0.26,-0.04 0.5,-0.06 0.75,-0.06 2.29,0 4.23,1.53 4.83,3.62 2.01,0.32 3.56,2.09 3.56,4.2 0,2.35 -1.92,4.27 -4.27,4.27 -1.57,0 -2.93,-0.84 -3.68,-2.09l-0.07 0c-0.26,0.58 -0.65,1.1 -1.12,1.53zm50 -24.21l0 5.13c-0.17,0.04 -0.32,0.06 -0.5,0.06 -1.16,0 -2.11,-0.94 -2.11,-2.11 0,-0.97 0.69,-1.81 1.6,-2.03 0.23,-0.43 0.58,-0.79 1.01,-1.05zm0 38.44l0 17.32c-0.19,0 -0.37,0.02 -0.56,0.02 -4.05,0 -7.35,-3.3 -7.35,-7.38 0,-3.43 2.37,-6.31 5.56,-7.11 0.58,-1.1 1.4,-2.05 2.35,-2.85l0 0z"/>
  <g id="_2159892966160">
   <g>
    <path style="fill:#B3B3B3" d="M22.29 32.99c1.28,0 2.42,0.45 3.32,1.21 -0.3,0.23 -0.58,0.53 -0.79,0.9 -1.53,0.24 -2.7,1.55 -2.7,3.13 0,1.72 1.42,3.15 3.15,3.15 0.52,0 0.99,-0.13 1.44,-0.35 -0.92,1.47 -2.56,2.42 -4.42,2.42 -0.86,0 -1.7,-0.22 -2.41,-0.59 -0.78,0.33 -1.64,0.52 -2.54,0.52 -0.8,0 -1.58,-0.15 -2.29,-0.41 -0.65,0.3 -1.36,0.48 -2.11,0.48 -2.68,0 -4.83,-2.16 -4.83,-4.83 0,-2.25 1.55,-4.14 3.64,-4.68 1.08,-1.96 3.17,-3.3 5.59,-3.3 2,0 3.77,0.93 4.93,2.35l0.02 0z"/>
    <path style="fill:#B3B3B3" d="M30.19 35.92c1.12,0.17 1.96,1.14 1.96,2.31 0,1.29 -1.06,2.33 -2.35,2.33 -0.87,0 -1.6,-0.46 -2.01,-1.15l-0.04 0c-0.43,0.93 -1.38,1.56 -2.48,1.56 -1.51,0 -2.74,-1.23 -2.74,-2.74 0,-1.45 1.12,-2.63 2.55,-2.74 0.45,-0.93 1.38,-1.55 2.48,-1.55 1.25,0 2.3,0.84 2.63,1.98l0 0z"/>
   </g>
   <path style="fill:#ff0" d="M40.64 28.83c-1.4,3.75 -4.12,6.87 -7.61,8.75 -0.21,-1.14 -1.01,-2.07 -2.11,-2.48 -0.61,-1.27 -1.92,-2.13 -3.36,-2.13 -0.54,0 -1.06,0.1 -1.51,0.32 -0.97,-0.73 -2.12,-1.16 -3.3,-1.25 -1.4,-1.51 -3.34,-2.37 -5.41,-2.37 -2.23,0 -4.3,1.01 -5.68,2.69 -1.79,-2.63 -2.84,-5.8 -2.84,-9.22 0,-6.54 3.84,-12.19 9.38,-14.82 -0.65,1.77 -1.02,3.69 -1.02,5.67 0,9.08 7.36,16.41 16.41,16.41 2.52,0 4.92,-0.56 7.05,-1.57l0 0zm-13.32 -17.58l0.41 1.28 1.33 0 -1.07 0.77 0.41 1.3 -1.08 -0.8 -1.08 0.8 0.41 -1.3 -1.1 -0.77 1.36 0 0.41 -1.28 0 0zm8.6 5.78l0.6 1.92 2.03 0 -1.64 1.19 0.63 1.92 -1.62 -1.19 -1.64 1.19 0.63 -1.92 -1.64 -1.19 2.03 0 0.62 -1.92 0 0zm2.16 -10.5l0.88 2.78 2.93 0 -2.37 1.73 0.91 2.76 -2.35 -1.7 -2.37 1.7 0.9 -2.76 -2.35 -1.73 2.91 0 0.91 -2.78 0 0z"/>
  </g>
  <g id="_2159892967408">
   <path style="fill:#fff" d="M26.05 239.31c1.91,0 3.68,0.69 5.06,1.81 -0.49,0.39 -0.9,0.86 -1.23,1.4 -2.32,0.34 -4.09,2.35 -4.09,4.74 0,2.65 2.15,4.81 4.8,4.81 0.76,0 1.51,-0.19 2.16,-0.52 -1.4,2.22 -3.88,3.69 -6.7,3.69 -1.34,0 -2.59,-0.32 -3.69,-0.91 -1.19,0.52 -2.5,0.8 -3.88,0.8 -1.23,0 -2.4,-0.24 -3.47,-0.65 -0.97,0.48 -2.07,0.76 -3.24,0.76 -4.05,0 -7.35,-3.3 -7.35,-7.35 0,-3.45 2.37,-6.34 5.56,-7.14 1.64,-3 4.83,-5.05 8.5,-5.05 3.04,0 5.75,1.41 7.54,3.61l0.03 0 0 0z"/>
   <path style="fill:#fff" d="M38.06 243.75c1.68,0.28 2.97,1.74 2.97,3.51 0,1.99 -1.59,3.58 -3.56,3.58 -1.31,0 -2.45,-0.71 -3.08,-1.75l-0.04 0c-0.67,1.41 -2.12,2.35 -3.75,2.35 -2.33,0 -4.19,-1.87 -4.19,-4.18 0,-2.2 1.71,-4.01 3.86,-4.16 0.69,-1.4 2.11,-2.37 3.77,-2.37 1.9,0 3.52,1.27 4.02,3.02l0 0z"/>
  </g>
  <path style="fill:#ff0" d="M29.6 222.16c5.98,0 10.85,4.86 10.85,10.85 0,3.13 -1.32,5.93 -3.43,7.91 -0.84,-0.62 -1.88,-0.99 -2.98,-0.99 -0.86,0 -1.66,0.22 -2.39,0.6l-0.04 -0.02c-1.47,-1.23 -3.3,-1.92 -5.22,-2 -1.9,-2.18 -4.59,-3.47 -7.48,-3.58 -0.11,-0.63 -0.17,-1.27 -0.17,-1.92 0,-5.99 4.87,-10.85 10.86,-10.85zm-4.14 -4.59l1.21 2.29 0.89 1.7c-0.33,0.07 -0.65,0.13 -0.98,0.22 -0.32,0.08 -0.64,0.19 -0.97,0.3l-0.06 -1.92 -0.09 -2.59zm-3.86 1.62l1.77 1.88 1.3 1.4c-0.31,0.15 -0.61,0.3 -0.89,0.47 -0.3,0.17 -0.58,0.35 -0.86,0.54l-0.56 -1.83 -0.76 -2.46 0 0zm-3.29 2.52l2.17 1.38 1.62 1.02c-0.24,0.21 -0.5,0.45 -0.73,0.69 -0.24,0.23 -0.46,0.47 -0.67,0.73l-1.04 -1.62 -1.36 -2.2 0.01 0zm-2.55 3.32l2.46 0.76 1.83 0.56c-0.17,0.28 -0.36,0.56 -0.54,0.84 -0.15,0.3 -0.32,0.6 -0.45,0.9l-1.4 -1.31 -1.9 -1.75 0 0zm-1.59 3.84l2.58 0.11 1.9 0.06c-0.11,0.33 -0.19,0.63 -0.3,0.97 -0.09,0.33 -0.15,0.65 -0.22,0.97l-1.68 -0.9 -2.28 -1.21zm-0.54 4.14l2.5 -0.58 1.87 -0.41c-0.02,0.32 -0.04,0.65 -0.04,0.99 0,0.34 0.02,0.67 0.04,1.01l-1.87 -0.43 -2.5 -0.58zm27.25 11.3l-0.58 -0.37c-0.33,-0.28 -0.67,-0.49 -1.06,-0.67l-0.54 -0.34 -0.11 -0.07c-0.23,-0.54 -0.58,-1.01 -0.99,-1.42 0.09,-0.06 0.15,-0.13 0.22,-0.19 0.24,-0.26 0.45,-0.5 0.67,-0.76l1.03 1.64 1.36 2.18zm2.54 -3.3l-2.45 -0.78 -1.84 -0.56c0.18,-0.26 0.37,-0.56 0.54,-0.84 0.15,-0.3 0.33,-0.6 0.45,-0.88l1.41 1.29 1.89 1.77 0 0zm1.6 -3.86l-2.59 -0.09 -1.9 -0.08c0.11,-0.3 0.2,-0.63 0.31,-0.95 0.08,-0.32 0.15,-0.67 0.21,-0.99l1.68 0.9 2.29 1.21zm0.54 -4.14l-2.5 0.58 -1.88 0.43c0.02,-0.34 0.04,-0.67 0.04,-1.01 0,-0.34 -0.02,-0.67 -0.04,-0.99l1.88 0.41 2.5 0.58zm-0.54 -4.14l-2.29 1.21 -1.68 0.9c-0.06,-0.32 -0.13,-0.64 -0.21,-0.97 -0.11,-0.34 -0.2,-0.64 -0.31,-0.97l1.9 -0.06 2.59 -0.11zm-1.6 -3.84l-1.89 1.75 -1.4 1.31c-0.13,-0.3 -0.31,-0.6 -0.46,-0.9 -0.17,-0.28 -0.36,-0.56 -0.54,-0.84l1.84 -0.56 2.45 -0.76 0 0zm-2.54 -3.32l-1.36 2.2 -1.03 1.62c-0.22,-0.26 -0.43,-0.5 -0.67,-0.73 -0.24,-0.24 -0.5,-0.48 -0.74,-0.7l1.62 -1.01 2.18 -1.38 0 0zm-3.3 -2.52l-0.75 2.46 -0.56 1.83c-0.28,-0.19 -0.57,-0.37 -0.87,-0.54 -0.28,-0.17 -0.58,-0.32 -0.88,-0.45l1.29 -1.42 1.77 -1.88 0 0zm-3.86 -1.62l-0.08 2.59 -0.07 1.92c-0.32,-0.11 -0.65,-0.22 -0.97,-0.3 -0.32,-0.09 -0.65,-0.15 -0.97,-0.22l0.88 -1.7 1.21 -2.29zm-4.12 -0.54l0.56 2.53 0.44 1.87c-0.33,-0.04 -0.67,-0.04 -1,-0.04 -0.34,0 -0.69,0 -1.01,0.04l0.43 -1.87 0.58 -2.53z"/>
  <polygon style="fill:#ff0" points="12.35,61.9 12.98,63.84 14.98,63.82 13.35,65.01 13.97,66.93 12.35,65.74 10.72,66.93 11.34,65.01 9.72,63.82 11.73,63.84 "/>
  <polygon style="fill:#ff0" points="40.56,82.62 41.18,84.54 43.19,84.54 41.55,85.7 42.17,87.62 40.56,86.44 38.92,87.62 39.54,85.7 37.93,84.54 39.93,84.54 "/>
  <polygon style="fill:#ff0" points="9.7,97.02 10.05,98.06 11.13,98.06 10.24,98.71 10.59,99.74 9.7,99.09 8.82,99.74 9.16,98.71 8.28,98.06 9.38,98.06 "/>
  <polygon style="fill:#ff0" points="20.22,78.42 20.63,79.69 21.95,79.67 20.87,80.47 21.28,81.72 20.22,80.94 19.15,81.72 19.56,80.47 18.48,79.67 19.81,79.69 "/>
  <polygon style="fill:#ff0" points="26.2,56.75 27.17,59.77 30.34,59.75 27.77,61.6 28.74,64.62 26.2,62.74 23.63,64.62 24.6,61.6 22.04,59.75 25.2,59.77 "/>
  <polygon style="fill:#ff0" points="35.58,102.93 35.88,103.82 36.78,103.82 36.05,104.36 36.33,105.24 35.58,104.7 34.84,105.24 35.12,104.36 34.37,103.82 35.3,103.82 "/>
  <polygon style="fill:#ff0" points="5.67,118.35 6.04,119.49 7.24,119.49 6.27,120.18 6.64,121.3 5.67,120.61 4.72,121.3 5.09,120.18 4.12,119.49 5.33,119.49 "/>
  <polygon style="fill:#ff0" points="42.58,131.78 42.86,132.64 43.79,132.64 43.04,133.18 43.34,134.07 42.58,133.53 41.85,134.07 42.13,133.18 41.38,132.64 42.3,132.64 "/>
 </g>
</svg>
