<svg xmlns="http://www.w3.org/2000/svg" viewBox="0 0 48.64 45.19"><path d="M26.32,28.74a9.33,9.33,0,0,1,6,2.18,6.56,6.56,0,0,0-1.49,1.61,5.73,5.73,0,0,0,.8,11.38,5.34,5.34,0,0,0,2.64-.69,9.42,9.42,0,0,1-7.93,4.37,9.08,9.08,0,0,1-4.37-1,12.62,12.62,0,0,1-4.6.92,12,12,0,0,1-4.14-.69,10.17,10.17,0,0,1-3.79.8A8.7,8.7,0,0,1,7.23,30.46a11.46,11.46,0,0,1,19-1.72Z" transform="translate(-0.68 -2.4)" style="fill:#fff;fill-rule:evenodd"/><path d="M40.47,34A4.2,4.2,0,0,1,44,38.17a4.24,4.24,0,0,1-4.25,4.25,4.06,4.06,0,0,1-3.56-2.07H36.1a5.05,5.05,0,0,1-4.48,2.76,4.91,4.91,0,0,1-4.94-4.94,5.09,5.09,0,0,1,4.6-4.94,5.05,5.05,0,0,1,4.48-2.76A4.93,4.93,0,0,1,40.47,34Z" transform="translate(-0.68 -2.4)" style="fill:#fff;fill-rule:evenodd"/><path d="M30.46,8.5a12.85,12.85,0,0,1,8.85,22.19,6.57,6.57,0,0,0-3.56-1.15,6.23,6.23,0,0,0-2.87.69h0a10.18,10.18,0,0,0-6.21-2.41,12.32,12.32,0,0,0-8.85-4.25,14.09,14.09,0,0,1-.23-2.18A12.93,12.93,0,0,1,30.46,8.5Zm-4.83-5.4L27,5.74l1,2.07A5.06,5.06,0,0,0,26.9,8c-.34.11-.69.23-1.15.34V6.08ZM21,4.93l2.07,2.3L24.6,8.84c-.34.23-.69.34-1,.57s-.69.34-1,.57L22,7.92l-.92-3Zm-3.91,3,2.53,1.61,2,1.26a6.57,6.57,0,0,1-.92.8,6.38,6.38,0,0,0-.69.92l-1.26-2L17.12,7.92Zm-3,3.91,2.87.92,2.18.69-.69,1c-.11.34-.34.69-.46,1L16.32,13.9l-2.18-2.07Zm-2,4.6,3.1.11,2.3.11a11.93,11.93,0,0,0-.46,1.15A5.06,5.06,0,0,1,16.89,19l-2-1.15Zm-.57,4.94,3-.69,2.18-.57c0,.46-.11.8-.11,1.26s.11.69.11,1.15l-2.18-.46ZM43.8,34.72l-.69-.46a4.75,4.75,0,0,0-1.26-.8l-.57-.34L41.16,33A6.44,6.44,0,0,0,40,31.27l.23-.23a5.31,5.31,0,0,1,.8-.8l1.15,1.84Zm3-3.91-2.87-.92-2.18-.69.69-1a4.66,4.66,0,0,1,.57-1l1.61,1.61,2.18,2.07Zm2-4.6-3.1-.11L43.46,26l.34-1c.11-.46.11-.8.23-1.26l2,1.15Zm.57-4.83-2.87.69-2.3.46a4.31,4.31,0,0,0,.11-1.15,4.72,4.72,0,0,0-.11-1.26l2.3.57Zm-.57-4.94L46,17.81,44,19c-.11-.46-.11-.8-.23-1.15s-.23-.8-.34-1.15l2.18-.11Zm-2-4.6L44.61,13.9,43,15.51a4.66,4.66,0,0,1-.57-1l-.69-1,2.18-.69,2.87-.92Zm-3-3.91-1.61,2.64-1.15,2c-.34-.34-.57-.69-.8-.92s-.57-.57-.92-.8l2-1.26L43.8,7.92Zm-3.91-3-.8,3L38.4,10c-.34-.23-.69-.34-1-.57s-.69-.34-1-.57l1.49-1.61,2.07-2.3ZM35.41,3.09l-.11,3-.11,2.3c-.34-.11-.8-.23-1.15-.34a4.09,4.09,0,0,0-1.15-.23l1-2.07ZM30.46,2.4l.69,3,.46,2.18h-2.3l.46-2.18Z" transform="translate(-0.68 -2.4)" style="fill:#fffd41;fill-rule:evenodd"/></svg>