<svg xmlns="http://www.w3.org/2000/svg" viewBox="0 0 45.05 49.12"><path d="M21.41,35.74a7.23,7.23,0,0,1,4.41,1.51,3.63,3.63,0,0,0-1,1.28,4.15,4.15,0,0,0-3.6,4.18,4.24,4.24,0,0,0,4.18,4.18,4.87,4.87,0,0,0,1.86-.46,6.63,6.63,0,0,1-5.81,3.14,7.42,7.42,0,0,1-3.25-.7,10.88,10.88,0,0,1-3.37.7,8.72,8.72,0,0,1-3-.58,8.09,8.09,0,0,1-2.9.58,6.37,6.37,0,0,1-6.39-6.39A6.58,6.58,0,0,1,7.36,36.9a8.4,8.4,0,0,1,7.43-4.3,8.43,8.43,0,0,1,6.62,3.14Z" transform="translate(-2.49 -0.44)" style="fill:#b2b2b2;fill-rule:evenodd"/><path d="M31.87,39.57a3.14,3.14,0,0,1,2.67,3.14,3.13,3.13,0,0,1-5.81,1.51h-.12a3.45,3.45,0,0,1-3.25,2.09A3.66,3.66,0,0,1,25.13,39a3.78,3.78,0,0,1,3.25-2.09,3.62,3.62,0,0,1,3.48,2.67Z" transform="translate(-2.49 -0.44)" style="fill:#b2b2b2;fill-rule:evenodd"/><path d="M45.8,30.17A21.6,21.6,0,0,1,35.7,41.78a4.42,4.42,0,0,0-2.79-3.25,5,5,0,0,0-4.53-2.9,5.47,5.47,0,0,0-2,.46A8.51,8.51,0,0,0,22,34.46a9.52,9.52,0,0,0-7.2-3.25,9.82,9.82,0,0,0-7.55,3.6A21.12,21.12,0,0,1,3.42,22.62,21.79,21.79,0,0,1,16,2.88a20.28,20.28,0,0,0-1.39,7.55A21.88,21.88,0,0,0,36.39,32.26a22.79,22.79,0,0,0,9.41-2.09ZM28,6.71l.58,1.74h1.74L29,9.5l.58,1.74L28,10.08l-1.39,1.16.58-1.74-1.51-1h1.86L28,6.71Zm11.5,7.78L40.34,17H43l-2.21,1.51.93,2.55L39.53,19.6l-2.21,1.51.81-2.55L36,17h2.67l.81-2.55ZM42.43.44l1.16,3.72h3.95L44.29,6.48l1.28,3.6L42.43,7.87,39.3,10.08l1.16-3.6L37.32,4.16h3.83L42.43.44Z" transform="translate(-2.49 -0.44)" style="fill:#fffd41;fill-rule:evenodd"/></svg>